<svg xmlns="http://www.w3.org/2000/svg" width="495" height="195" viewBox="0 0 495 195">
  <rect x="0" y="0" width="495" height="195" rx="16" fill="#1a1b26"/>
  <rect x="10" y="10" width="475" height="175" rx="14" fill="#24283b" stroke="#414868" stroke-width="1"/>
  <text x="18" y="38" fill="#c0caf5" font-size="18" font-family="ui-sans-serif, system-ui, -apple-system, Segoe UI">Top Languages</text>
  <text x="477" y="38" text-anchor="end" fill="#a9b1d6" font-size="11" font-family="ui-sans-serif, system-ui, -apple-system, Segoe UI">2026-07-21 10:35 UTC</text>
  <text x="18" y="58" fill="#a9b1d6" font-size="13" font-family="ui-sans-serif, system-ui, -apple-system, Segoe UI">Top languages by GitHub Linguist bytes (non-fork repos)</text>
  <rect x="18" y="64" width="459" height="10" rx="4" fill="#1f2335" stroke="#414868" stroke-width="1"/>
  <rect x="18" y="64" width="427" height="10" rx="4" fill="#7aa2f7"/><rect x="445" y="64" width="15" height="10" rx="4" fill="#bb9af7"/><rect x="460" y="64" width="7" height="10" rx="4" fill="#2ac3de"/><rect x="467" y="64" width="6" height="10" rx="4" fill="#9ece6a"/><rect x="473" y="64" width="2" height="10" rx="4" fill="#f7768e"/><rect x="475" y="64" width="2" height="10" rx="4" fill="#e0af68"/><rect x="477" y="64" width="2" height="10" rx="4" fill="#7dcfff"/><rect x="479" y="64" width="2" height="10" rx="4" fill="#c0caf5"/>
  <circle cx="24" cy="89" r="5" fill="#7aa2f7"/><text x="36" y="94" fill="#a9b1d6" font-size="13" font-family="ui-sans-serif, system-ui, -apple-system, Segoe UI">PowerShell</text><text x="477" y="94" text-anchor="end" fill="#c0caf5" font-size="13" font-family="ui-sans-serif, system-ui, -apple-system, Segoe UI">93.2%</text><circle cx="24" cy="109" r="5" fill="#bb9af7"/><text x="36" y="114" fill="#a9b1d6" font-size="13" font-family="ui-sans-serif, system-ui, -apple-system, Segoe UI">Python</text><text x="477" y="114" text-anchor="end" fill="#c0caf5" font-size="13" font-family="ui-sans-serif, system-ui, -apple-system, Segoe UI">3.4%</text><circle cx="24" cy="129" r="5" fill="#2ac3de"/><text x="36" y="134" fill="#a9b1d6" font-size="13" font-family="ui-sans-serif, system-ui, -apple-system, Segoe UI">Batchfile</text><text x="477" y="134" text-anchor="end" fill="#c0caf5" font-size="13" font-family="ui-sans-serif, system-ui, -apple-system, Segoe UI">1.5%</text><circle cx="24" cy="149" r="5" fill="#9ece6a"/><text x="36" y="154" fill="#a9b1d6" font-size="13" font-family="ui-sans-serif, system-ui, -apple-system, Segoe UI">TypeScript</text><text x="477" y="154" text-anchor="end" fill="#c0caf5" font-size="13" font-family="ui-sans-serif, system-ui, -apple-system, Segoe UI">1.5%</text><circle cx="24" cy="169" r="5" fill="#f7768e"/><text x="36" y="174" fill="#a9b1d6" font-size="13" font-family="ui-sans-serif, system-ui, -apple-system, Segoe UI">Shell</text><text x="477" y="174" text-anchor="end" fill="#c0caf5" font-size="13" font-family="ui-sans-serif, system-ui, -apple-system, Segoe UI">0.2%</text><circle cx="24" cy="189" r="5" fill="#e0af68"/><text x="36" y="194" fill="#a9b1d6" font-size="13" font-family="ui-sans-serif, system-ui, -apple-system, Segoe UI">CSS</text><text x="477" y="194" text-anchor="end" fill="#c0caf5" font-size="13" font-family="ui-sans-serif, system-ui, -apple-system, Segoe UI">0.1%</text><circle cx="24" cy="209" r="5" fill="#7dcfff"/><text x="36" y="214" fill="#a9b1d6" font-size="13" font-family="ui-sans-serif, system-ui, -apple-system, Segoe UI">JavaScript</text><text x="477" y="214" text-anchor="end" fill="#c0caf5" font-size="13" font-family="ui-sans-serif, system-ui, -apple-system, Segoe UI">0.1%</text><circle cx="24" cy="229" r="5" fill="#c0caf5"/><text x="36" y="234" fill="#a9b1d6" font-size="13" font-family="ui-sans-serif, system-ui, -apple-system, Segoe UI">C#</text><text x="477" y="234" text-anchor="end" fill="#c0caf5" font-size="13" font-family="ui-sans-serif, system-ui, -apple-system, Segoe UI">0.1%</text>
</svg>
